<svg width="15" height="13" viewBox="0 0 15 13" fill="none" xmlns="http://www.w3.org/2000/svg">
<path d="M12.0567 12.9646H2.92649C2.75353 12.9646 2.58765 12.8966 2.46535 12.7757C2.34304 12.6548 2.27434 12.4908 2.27434 12.3197V6.51617H0.317871L7.05267 0.462407C7.17274 0.354381 7.32924 0.294518 7.49157 0.294518C7.65391 0.294518 7.81041 0.354381 7.93048 0.462407L14.6653 6.51617H12.7088V12.3197C12.7088 12.4908 12.6401 12.6548 12.5178 12.7757C12.3955 12.8966 12.2296 12.9646 12.0567 12.9646ZM8.14373 11.6749H11.4045V5.32773L7.49157 1.81077L3.57865 5.32773V11.6749H6.83942V7.80585H8.14373V11.6749Z" fill="#9DA8B6"/>
</svg>
