<svg width="12" height="14" viewBox="0 0 12 14" fill="none" xmlns="http://www.w3.org/2000/svg">
<path d="M0.717285 13.8218C0.717285 12.4536 1.2807 11.1415 2.28358 10.174C3.28646 9.2066 4.64666 8.66309 6.06495 8.66309C7.48324 8.66309 8.84345 9.2066 9.84633 10.174C10.8492 11.1415 11.4126 12.4536 11.4126 13.8218H10.0757C10.0757 12.7957 9.65315 11.8116 8.90099 11.086C8.14882 10.3604 7.12867 9.95277 6.06495 9.95277C5.00124 9.95277 3.98109 10.3604 3.22892 11.086C2.47676 11.8116 2.0542 12.7957 2.0542 13.8218H0.717285ZM6.06495 8.01825C3.84901 8.01825 2.0542 6.28685 2.0542 4.14921C2.0542 2.01156 3.84901 0.280167 6.06495 0.280167C8.2809 0.280167 10.0757 2.01156 10.0757 4.14921C10.0757 6.28685 8.2809 8.01825 6.06495 8.01825ZM6.06495 6.72857C7.54225 6.72857 8.73879 5.57431 8.73879 4.14921C8.73879 2.72411 7.54225 1.56985 6.06495 1.56985C4.58766 1.56985 3.39112 2.72411 3.39112 4.14921C3.39112 5.57431 4.58766 6.72857 6.06495 6.72857Z" fill="#9DA8B6"/>
</svg>
