<svg width="14" height="13" viewBox="0 0 14 13" fill="none" xmlns="http://www.w3.org/2000/svg">
<path d="M1.04883 0.912987H13.0811C13.2584 0.912987 13.4284 0.980925 13.5538 1.10186C13.6791 1.22279 13.7495 1.3868 13.7495 1.55783V11.8753C13.7495 12.0463 13.6791 12.2103 13.5538 12.3312C13.4284 12.4522 13.2584 12.5201 13.0811 12.5201H1.04883C0.871544 12.5201 0.701518 12.4522 0.576158 12.3312C0.450798 12.2103 0.380371 12.0463 0.380371 11.8753V1.55783C0.380371 1.3868 0.450798 1.22279 0.576158 1.10186C0.701518 0.980925 0.871544 0.912987 1.04883 0.912987ZM12.4126 3.64582L7.11309 8.22419L1.71729 3.63163V11.2304H12.4126V3.64582ZM2.05887 2.20267L7.10574 6.49859L12.0797 2.20267H2.05887Z" fill="#9DA8B6"/>
</svg>
