<svg width="13" height="12" viewBox="0 0 13 12" fill="none" xmlns="http://www.w3.org/2000/svg">
<path d="M4.30424 5.20979C4.93148 6.27279 5.84405 7.15312 6.94598 7.7582L7.5369 6.95988C7.63193 6.83152 7.77243 6.74121 7.93183 6.70603C8.09123 6.67086 8.25846 6.69326 8.40189 6.76901C9.3473 7.26742 10.3914 7.56718 11.4654 7.64857C11.6331 7.66139 11.7895 7.73468 11.9036 7.85384C12.0177 7.973 12.0811 8.12926 12.0811 8.29148V11.1688C12.0811 11.3284 12.0198 11.4824 11.9089 11.6009C11.798 11.7195 11.6455 11.7941 11.4808 11.8104C11.1265 11.8458 10.7696 11.8632 10.4099 11.8632C4.68793 11.8632 0.0488281 7.38806 0.0488281 1.86822C0.0488281 1.5213 0.0668765 1.17695 0.103642 0.835189C0.120523 0.676363 0.197884 0.529226 0.32075 0.422255C0.443617 0.315285 0.603252 0.256088 0.768758 0.256123H3.75142C3.91958 0.256102 4.08157 0.317222 4.20509 0.427296C4.32861 0.53737 4.40459 0.68831 4.41787 0.850021C4.50225 1.88615 4.81298 2.89331 5.32965 3.80532C5.40817 3.94368 5.4314 4.10501 5.39494 4.25877C5.35848 4.41254 5.26485 4.54808 5.13179 4.63975L4.30424 5.20979ZM2.61838 4.78613L3.88846 3.91108C3.52801 3.16054 3.28106 2.364 3.15516 1.5458H1.39243C1.38842 1.65285 1.38641 1.76054 1.38641 1.86822C1.38575 6.67615 5.42591 10.5736 10.4099 10.5736C10.5216 10.5736 10.6332 10.5716 10.7442 10.5671V8.86668C9.896 8.74522 9.07028 8.507 8.29226 8.15929L7.38516 9.38448C7.01996 9.24759 6.66524 9.08598 6.32365 8.90085L6.28488 8.87957C4.97375 8.15975 3.88797 7.11234 3.14179 5.84753L3.11973 5.81013C2.92782 5.48062 2.76029 5.13843 2.61838 4.78613Z" fill="#9DA8B6"/>
</svg>
