<svg width="12" height="14" viewBox="0 0 12 14" fill="none" xmlns="http://www.w3.org/2000/svg">
<path d="M1.25909 0.640717H10.3893C10.5622 0.640717 10.7281 0.708655 10.8504 0.829586C10.9727 0.950517 11.0414 1.11453 11.0414 1.28556V13.6297C11.0415 13.6874 11.0259 13.744 10.9963 13.7937C10.9668 13.8434 10.9243 13.8843 10.8733 13.9122C10.8222 13.9402 10.7646 13.954 10.7063 13.9524C10.648 13.9508 10.5912 13.9338 10.5419 13.9031L5.82417 10.9775L1.10648 13.9025C1.05716 13.9331 1.00044 13.9502 0.942208 13.9518C0.88398 13.9534 0.826375 13.9396 0.775382 13.9117C0.724389 13.8839 0.681871 13.8431 0.652247 13.7935C0.622624 13.7439 0.606977 13.6873 0.606934 13.6297V1.28556C0.606934 1.11453 0.675643 0.950517 0.797945 0.829586C0.920248 0.708655 1.08613 0.640717 1.25909 0.640717ZM3.21555 5.1546V6.44428H8.43279V5.1546H3.21555Z" fill="#9DA8B6"/>
</svg>
