<svg width="16" height="12" viewBox="0 0 16 12" fill="none" xmlns="http://www.w3.org/2000/svg">
<path d="M12.4628 10.5909H3.3081V11.2358C3.3081 11.4068 3.2392 11.5708 3.11657 11.6918C2.99394 11.8127 2.82762 11.8806 2.65419 11.8806H2.00029C1.82686 11.8806 1.66054 11.8127 1.53791 11.6918C1.41528 11.5708 1.34638 11.4068 1.34638 11.2358V6.39948L0.53358 6.19958C0.392175 6.16465 0.266662 6.08413 0.176977 5.9708C0.0872915 5.85747 0.0385781 5.71784 0.0385742 5.57409L0.0385742 5.1098C0.0385742 5.02429 0.0730209 4.94228 0.134336 4.88182C0.195652 4.82135 0.278813 4.78738 0.365526 4.78738H1.34638L2.96807 1.05505C3.06898 0.822903 3.23679 0.62509 3.45068 0.486154C3.66457 0.347218 3.91513 0.273274 4.17125 0.273499H11.5996C11.8555 0.273527 12.1058 0.347589 12.3194 0.486509C12.533 0.62543 12.7007 0.823105 12.8015 1.05505L14.4245 4.78738H15.4053C15.492 4.78738 15.5752 4.82135 15.6365 4.88182C15.6978 4.94228 15.7323 5.02429 15.7323 5.1098V5.57409C15.7323 5.71784 15.6836 5.85747 15.5939 5.9708C15.5042 6.08413 15.3787 6.16465 15.2373 6.19958L14.4245 6.39948V11.2358C14.4245 11.4068 14.3556 11.5708 14.2329 11.6918C14.1103 11.8127 13.944 11.8806 13.7706 11.8806H13.1167C12.9432 11.8806 12.7769 11.8127 12.6543 11.6918C12.5316 11.5708 12.4628 11.4068 12.4628 11.2358V10.5909ZM13.1167 9.30126V6.07706H2.65419V9.30126H13.1167ZM3.62001 4.78738H12.1508C12.2576 4.78732 12.3628 4.76145 12.4571 4.71205C12.5515 4.66265 12.6321 4.59122 12.6919 4.504C12.7518 4.41678 12.7891 4.31643 12.8006 4.21171C12.812 4.107 12.7973 4.00111 12.7577 3.90331L11.8089 1.56318H3.962L3.01318 3.90331C2.97356 4.00111 2.95883 4.107 2.97029 4.21171C2.98175 4.31643 3.01904 4.41678 3.07891 4.504C3.13877 4.59122 3.21939 4.66265 3.31372 4.71205C3.40805 4.76145 3.51321 4.78732 3.62001 4.78738ZM3.3081 6.7219C4.82319 6.7219 5.84459 7.20876 6.37229 8.18182C6.39897 8.23096 6.41227 8.28607 6.41091 8.34178C6.40954 8.3975 6.39356 8.45191 6.36451 8.49972C6.33546 8.54753 6.29434 8.5871 6.24517 8.61456C6.19599 8.64202 6.14043 8.65645 6.08392 8.65642H3.962C3.78857 8.65642 3.62225 8.58849 3.49962 8.46756C3.37699 8.34662 3.3081 8.18261 3.3081 8.01158V6.7219ZM12.4628 6.7219V8.01158C12.4628 8.18261 12.3939 8.34662 12.2712 8.46756C12.1486 8.58849 11.9823 8.65642 11.8089 8.65642H9.68693C9.63047 8.65634 9.575 8.64183 9.52591 8.61432C9.47682 8.58681 9.4358 8.54723 9.40683 8.49945C9.37786 8.45166 9.36193 8.39728 9.36059 8.34162C9.35926 8.28596 9.37256 8.23091 9.39921 8.18182C9.92561 7.20811 10.947 6.7219 12.4628 6.7219Z" fill="#9DA8B6"/>
</svg>
