<svg width="15" height="13" viewBox="0 0 15 13" fill="none" xmlns="http://www.w3.org/2000/svg">
<path d="M7.53659 0.0557098C11.1481 0.0557098 14.0756 2.94266 14.0756 6.50411C14.0756 10.0656 11.1481 12.9525 7.53659 12.9525C3.92508 12.9525 0.997559 10.0656 0.997559 6.50411C0.997559 2.94266 3.92508 0.0557098 7.53659 0.0557098ZM4.92098 7.14895L2.34591 7.1496C2.49159 8.28595 3.01644 9.34222 3.8378 10.1521C4.65915 10.9619 5.73035 11.4794 6.88269 11.6229V9.08347C6.36241 9.08347 5.86344 8.87966 5.49555 8.51687C5.12766 8.15407 4.92098 7.66202 4.92098 7.14895ZM12.7273 7.1496L10.1522 7.14895C10.1522 7.66202 9.94553 8.15407 9.57764 8.51687C9.20974 8.87966 8.71077 9.08347 8.1905 9.08347L8.19115 11.6229C9.34337 11.4792 10.4144 10.9617 11.2356 10.1519C12.0569 9.34205 12.5816 8.28585 12.7273 7.1496V7.1496ZM8.8444 6.50411H6.22879V7.14895C6.22879 7.31998 6.29768 7.48399 6.42031 7.60492C6.54294 7.72586 6.70926 7.79379 6.88269 7.79379H8.1905C8.36392 7.79379 8.53025 7.72586 8.65288 7.60492C8.77551 7.48399 8.8444 7.31998 8.8444 7.14895V6.50411ZM7.53659 1.34539C6.26239 1.34541 5.03199 1.80399 4.0763 2.63507C3.12061 3.46615 2.50532 4.6126 2.34591 5.85927H4.92098C4.92098 5.68825 4.98987 5.52423 5.1125 5.4033C5.23513 5.28237 5.40146 5.21443 5.57488 5.21443H9.4983C9.67173 5.21443 9.83805 5.28237 9.96068 5.4033C10.0833 5.52423 10.1522 5.68825 10.1522 5.85927H12.7273C12.5679 4.6126 11.9526 3.46615 10.9969 2.63507C10.0412 1.80399 8.8108 1.34541 7.53659 1.34539V1.34539Z" fill="#9DA8B6"/>
</svg>
