<svg width="23" height="24" viewBox="0 0 23 24" fill="none" xmlns="http://www.w3.org/2000/svg">
<path fill-rule="evenodd" clip-rule="evenodd" d="M11.0559 2.34508C11.0556 2.34523 11.0553 2.34538 11.055 2.34553L3.0572 6.34442L3.05499 6.34553C2.88838 6.42832 2.74817 6.55594 2.65013 6.71405C2.55211 6.87211 2.50012 7.05436 2.49999 7.24034C2.49999 7.24027 2.49999 7.2404 2.49999 7.24034V16.767C2.49869 16.9533 2.54948 17.1363 2.64666 17.2954C2.74368 17.4541 2.88307 17.5827 3.04914 17.6665C3.04887 17.6664 3.04942 17.6667 3.04914 17.6665L11.0472 21.6656C11.1861 21.7351 11.3396 21.7714 11.495 21.7714C11.6503 21.7714 11.8036 21.7352 11.9425 21.6657L19.9428 17.6656L19.945 17.6645C20.1116 17.5817 20.2518 17.4541 20.3498 17.2959C20.4479 17.1378 20.4999 16.9555 20.5 16.7695V7.24053C20.4999 7.05449 20.4479 6.87216 20.3498 6.71405C20.2518 6.55594 20.1116 6.42832 19.945 6.34553L19.9428 6.34442L11.945 2.34553C11.9447 2.34538 11.9444 2.34523 11.9441 2.34508C11.806 2.27666 11.6541 2.24106 11.5 2.24106C11.3459 2.24106 11.1939 2.27666 11.0559 2.34508ZM12.39 1.45L12.835 0.554467C12.4202 0.34833 11.9632 0.241058 11.5 0.241058C11.0368 0.241058 10.5798 0.34833 10.165 0.554467L10.1628 0.55557L2.16499 4.55447C2.16458 4.55467 2.16416 4.55487 2.16375 4.55508C1.66448 4.80346 1.2443 5.18609 0.950407 5.66003C0.65627 6.13436 0.500284 6.68134 0.499988 7.23947L0.499987 16.7569C0.496817 17.3146 0.649212 17.8623 0.940093 18.3383C1.23164 18.8153 1.65071 19.2015 2.15001 19.453L2.15277 19.4544L10.1525 23.4543C10.5693 23.6628 11.0289 23.7714 11.495 23.7714C11.9609 23.7714 12.4205 23.6629 12.8372 23.4544C12.8373 23.4544 12.8371 23.4545 12.8372 23.4544L20.835 19.4555C20.8353 19.4554 20.8357 19.4552 20.836 19.455C21.3354 19.2067 21.7556 18.824 22.0496 18.35C22.3437 17.8756 22.4997 17.3287 22.5 16.7705V7.24C22.4997 6.68187 22.3437 6.13436 22.0496 5.66003C21.7557 5.18611 21.3355 4.80349 20.8363 4.5551C20.8358 4.55489 20.8354 4.55468 20.835 4.55447L12.8372 0.55557L12.39 1.45Z" fill="#777E96"/>
<path fill-rule="evenodd" clip-rule="evenodd" d="M0.92556 5.71278C1.17255 5.21881 1.77322 5.01858 2.2672 5.26557L11.5 9.88196L20.7328 5.26557C21.2268 5.01858 21.8274 5.21881 22.0744 5.71278C22.3214 6.20676 22.1212 6.80744 21.6272 7.05442L11.9472 11.8944C11.6657 12.0352 11.3343 12.0352 11.0528 11.8944L1.37277 7.05442C0.878795 6.80744 0.678571 6.20676 0.92556 5.71278Z" fill="#777E96"/>
<path fill-rule="evenodd" clip-rule="evenodd" d="M11.5 10C12.0523 10 12.5 10.4477 12.5 11V22.76C12.5 23.3123 12.0523 23.76 11.5 23.76C10.9477 23.76 10.5 23.3123 10.5 22.76V11C10.5 10.4477 10.9477 10 11.5 10Z" fill="#777E96"/>
<path fill-rule="evenodd" clip-rule="evenodd" d="M5.60556 3.05278C5.85255 2.5588 6.45322 2.35858 6.9472 2.60557L16.9472 7.60557C17.4412 7.85256 17.6414 8.45323 17.3944 8.94721C17.1474 9.44119 16.5468 9.64141 16.0528 9.39442L6.05277 4.39442C5.5588 4.14744 5.35857 3.54676 5.60556 3.05278Z" fill="#777E96"/>
</svg>
