<svg width="20" height="20" viewBox="0 0 20 20" fill="none" xmlns="http://www.w3.org/2000/svg">
<rect width="20" height="20" rx="5" fill="#C4C4C4" fill-opacity="0.58"/>
<path d="M14.3081 4.82098H9.07054C8.92654 4.17234 8.52202 3.7037 8.04641 3.7037C7.57079 3.7037 7.16627 4.17234 7.02227 4.82098H6.20472C6.01481 4.82098 5.86084 5.0545 5.86084 5.34254C5.86084 5.63058 6.01481 5.8641 6.20472 5.8641H7.0223C7.16629 6.51274 7.57081 6.98138 8.04643 6.98138C8.52204 6.98138 8.92657 6.51274 9.07056 5.8641H14.3082C14.4981 5.8641 14.6521 5.63058 14.6521 5.34254C14.6521 5.0545 14.4981 4.82098 14.3081 4.82098ZM8.04641 5.93826C7.82983 5.93826 7.65362 5.67102 7.65362 5.34254C7.65362 5.01407 7.82983 4.74682 8.04641 4.74682C8.26298 4.74682 8.43919 5.01407 8.43919 5.34254C8.43919 5.67102 8.26298 5.93826 8.04641 5.93826Z" fill="#636366"/>
<path d="M14.3081 9.47376H13.4906C13.3466 8.82511 12.942 8.35648 12.4664 8.35648C11.9908 8.35648 11.5863 8.82511 11.4423 9.47376H6.20472C6.01481 9.47376 5.86084 9.70727 5.86084 9.99531C5.86084 10.2834 6.01481 10.5169 6.20472 10.5169H11.4423C11.5863 11.1655 11.9909 11.6341 12.4665 11.6341C12.9421 11.6341 13.3466 11.1655 13.4906 10.5169H14.3082C14.4981 10.5169 14.6521 10.2834 14.6521 9.99531C14.6521 9.70727 14.4981 9.47376 14.3081 9.47376ZM12.4665 10.591C12.2499 10.591 12.0737 10.3238 12.0737 9.99531C12.0737 9.66684 12.2499 9.39959 12.4665 9.39959C12.683 9.39959 12.8592 9.66684 12.8592 9.99531C12.8592 10.3238 12.683 10.591 12.4665 10.591Z" fill="#636366"/>
<path d="M14.3081 13.9413H10.5439C10.3999 13.2927 9.99538 12.8241 9.51977 12.8241C9.04415 12.8241 8.63963 13.2927 8.49563 13.9413H6.20472C6.01481 13.9413 5.86084 14.1749 5.86084 14.4629C5.86084 14.7509 6.01481 14.9845 6.20472 14.9845H8.49563C8.63963 15.6331 9.04415 16.1017 9.51977 16.1017C9.99538 16.1017 10.3999 15.6331 10.5439 14.9845H14.3082C14.4981 14.9845 14.6521 14.7509 14.6521 14.4629C14.6521 14.1749 14.4981 13.9413 14.3081 13.9413ZM9.51977 15.0587C9.30319 15.0587 9.12698 14.7914 9.12698 14.4629C9.12698 14.1345 9.30319 13.8672 9.51977 13.8672C9.73634 13.8672 9.91255 14.1344 9.91255 14.4629C9.91255 14.7914 9.73634 15.0587 9.51977 15.0587Z" fill="#636366"/>
</svg>
